<svg width="36" height="36" viewBox="0 0 36 36" fill="none" xmlns="http://www.w3.org/2000/svg">
<g filter="url(#filter0_d_57_4925)">
<rect x="0" y="0" width="36" height="36" rx="18" fill="white"/>
<rect x="0.5" y="0.5" width="35" height="35" rx="17.5" stroke="#004850"/>
<path fill-rule="evenodd" clip-rule="evenodd" d="M25 11.5C25 11.2239 24.7761 11 24.5 11H16.5C16.2239 11 16 11.2239 16 11.5C16 11.7761 16.2239 12 16.5 12H23.2929L11.6464 23.6464C11.4512 23.8417 11.4512 24.1583 11.6464 24.3536C11.8417 24.5488 12.1583 24.5488 12.3536 24.3536L24 12.7071V20.5C24 20.7761 24.2239 21 24.5 21C24.7761 21 25 20.7761 25 20.5V11.5Z" fill="#004850"/>
</g>
<defs>
<filter id="filter0_d_57_4925" x="0" y="0" width="36" height="36" filterUnits="userSpaceOnUse" color-interpolation-filters="sRGB">
<feFlood flood-opacity="0" result="BackgroundImageFix"/>
<feColorMatrix in="SourceAlpha" type="matrix" values="0 0 0 0 0 0 0 0 0 0 0 0 0 0 0 0 0 0 127 0" result="hardAlpha"/>
<feOffset dy="4"/>
<feGaussianBlur stdDeviation="2"/>
<feColorMatrix type="matrix" values="0 0 0 0 0.5445 0 0 0 0 0.70719 0 0 0 0 0.825 0 0 0 0.1 0"/>
<feBlend mode="normal" in2="BackgroundImageFix" result="effect1_dropShadow_57_4925"/>
<feBlend mode="normal" in="SourceGraphic" in2="effect1_dropShadow_57_4925" result="shape"/>
</filter>
</defs>
</svg>
